<?xml version="1.0" standalone="no"?>
<!DOCTYPE svg PUBLIC "-//W3C//DTD SVG 20010904//EN"
 "http://www.w3.org/TR/2001/REC-SVG-20010904/DTD/svg10.dtd">
<svg version="1.0" xmlns="http://www.w3.org/2000/svg"
 width="1028.000000pt" height="1028.000000pt" viewBox="0 0 1028.000000 1028.000000"
 preserveAspectRatio="xMidYMid meet">
<metadata>
Created by potrace 1.11, written by Peter Selinger 2001-2013
</metadata>
<g transform="translate(0.000000,1028.000000) scale(0.100000,-0.100000)"
fill="#000000" stroke="none">
<path d="M699 10263 c-3 -52 -1 -284 2 -287 2 -2 24 -6 49 -9 96 -11 230 -80
339 -172 126 -108 289 -338 446 -630 21 -38 45 -83 55 -100 10 -16 37 -66 60
-110 24 -44 69 -127 100 -185 32 -58 77 -141 100 -185 23 -44 83 -154 133
-245 49 -91 104 -192 122 -225 18 -33 63 -116 100 -185 97 -179 129 -238 162
-300 16 -30 43 -80 60 -110 16 -30 78 -145 138 -255 59 -110 133 -247 165
-305 31 -58 73 -134 92 -170 145 -269 239 -442 260 -480 14 -25 44 -81 68
-125 23 -44 55 -102 70 -130 15 -27 43 -79 62 -115 20 -36 47 -85 60 -110 14
-25 44 -81 68 -125 24 -44 69 -127 100 -185 32 -58 79 -145 105 -195 27 -49
84 -154 127 -233 43 -78 78 -145 78 -147 0 -2 15 -30 33 -62 19 -32 52 -92 74
-133 70 -129 151 -279 200 -370 17 -30 47 -86 68 -125 21 -38 50 -92 65 -120
15 -27 46 -85 69 -128 l42 -77 -4 -1363 c-3 -1251 -6 -1429 -22 -1525 -3 -17
-8 -49 -11 -70 -41 -329 -166 -504 -414 -580 -88 -27 -303 -68 -400 -77 -14
-1 -65 -6 -115 -10 -92 -8 -134 -12 -147 -14 -5 -1 -8 -67 -8 -147 l0 -146 68
6 c407 34 1986 50 3162 32 447 -7 502 -9 750 -22 80 -4 168 -7 195 -8 l50 -1
1 143 c1 97 -2 142 -10 143 -6 0 -22 2 -36 4 -14 2 -80 9 -148 15 -67 6 -131
13 -141 15 -10 2 -36 6 -57 10 -82 13 -102 17 -199 41 -232 58 -356 166 -435
378 -20 51 -24 66 -35 126 -2 14 -9 48 -14 77 -6 29 -13 81 -17 115 -3 35 -8
74 -12 88 -3 14 -7 704 -9 1535 l-4 1510 -53 100 c-30 55 -91 174 -137 265
-45 91 -85 167 -88 170 -3 3 -28 48 -54 100 -26 52 -76 149 -110 215 -35 66
-103 197 -151 290 -49 94 -92 175 -96 180 -4 6 -44 82 -90 170 -45 88 -104
201 -130 250 -26 50 -77 146 -112 215 -36 69 -86 163 -110 210 -25 47 -80 153
-123 235 -43 83 -97 186 -120 230 -23 44 -72 136 -107 205 -66 125 -145 278
-243 465 -29 55 -79 152 -112 215 -109 208 -175 334 -228 435 -29 55 -83 159
-120 230 -37 72 -72 136 -78 143 -5 6 -6 12 -3 12 4 0 -1 12 -12 28 -10 15
-63 113 -117 217 -257 497 -277 547 -278 710 -1 113 16 165 78 241 66 80 229
163 352 180 26 3 50 7 53 9 3 2 29 6 59 10 30 4 63 9 75 11 11 2 54 6 96 10
41 3 95 7 120 10 25 2 89 4 143 4 69 0 97 4 98 13 1 19 1 260 0 279 -1 19 -18
19 -329 3 -50 -3 -176 -7 -280 -10 -103 -3 -241 -8 -307 -10 -769 -25 -1998
-25 -2440 0 -255 14 -431 24 -577 30 -118 5 -128 4 -129 -12z"/>
<path d="M6720 10135 c0 -109 3 -145 13 -146 6 -1 28 -2 47 -3 71 -5 216 -18
240 -21 14 -2 45 -7 69 -10 81 -11 265 -63 350 -99 182 -77 308 -176 390 -307
46 -75 97 -220 108 -312 10 -80 10 -294 0 -372 -4 -33 -10 -80 -13 -105 -3
-25 -7 -56 -9 -70 -2 -14 -7 -52 -11 -85 -3 -33 -8 -67 -9 -75 -2 -9 -6 -43
-10 -75 -4 -33 -9 -67 -10 -75 -2 -9 -6 -43 -10 -75 -4 -33 -9 -67 -10 -76 -2
-9 -6 -40 -10 -70 -3 -30 -8 -65 -10 -79 -2 -14 -7 -45 -10 -70 -4 -25 -8 -56
-10 -70 -2 -14 -6 -45 -10 -70 -3 -25 -8 -56 -10 -70 -2 -14 -7 -45 -10 -70
-3 -25 -8 -56 -10 -70 -6 -32 -10 -57 -35 -220 -12 -74 -27 -166 -35 -205 -21
-100 -19 -100 26 0 23 50 54 118 70 153 16 35 29 65 29 67 0 1 22 49 49 106
26 57 63 138 81 179 18 41 50 112 71 158 22 46 39 85 39 87 0 2 16 38 35 80
19 41 51 109 70 150 19 42 35 78 35 81 0 16 173 358 247 488 172 304 312 515
460 694 90 107 246 262 334 329 81 62 210 137 274 158 34 12 55 25 56 35 0 8
1 75 2 148 l2 132 -85 -5 c-47 -3 -128 -7 -180 -10 -52 -3 -117 -8 -145 -10
-272 -22 -1060 -22 -1675 0 -249 9 -443 15 -607 20 l-173 6 0 -146z"/>
</g>
</svg>
